<svg xmlns="http://www.w3.org/2000/svg" width="1280" height="800" viewBox="0 0 1280 800" fill="none">
  <rect width="1280" height="800" rx="32" fill="#FFF7F6"/>
  <rect x="42" y="42" width="1196" height="92" rx="26" fill="#FFFFFF"/>
  <rect x="74" y="76" width="260" height="24" rx="12" fill="#FFE4E6"/>
  <rect x="42" y="166" width="560" height="592" rx="28" fill="#FFFFFF"/>
  <rect x="634" y="166" width="604" height="592" rx="28" fill="#FFFFFF"/>
  <rect x="88" y="212" width="210" height="18" rx="9" fill="#ECDDD8"/>
  <rect x="88" y="254" width="468" height="14" rx="7" fill="#F1E8E1"/>
  <rect x="88" y="286" width="468" height="14" rx="7" fill="#F1E8E1"/>
  <rect x="88" y="338" width="468" height="132" rx="24" fill="#DBEAFE"/>
  <rect x="88" y="498" width="216" height="178" rx="24" fill="#FFE4E6"/>
  <rect x="340" y="498" width="216" height="178" rx="24" fill="#E0F2FE"/>
  <rect x="680" y="212" width="230" height="22" rx="11" fill="#DBEAFE"/>
  <rect x="680" y="258" width="512" height="14" rx="7" fill="#ECE4DB"/>
  <rect x="680" y="290" width="512" height="14" rx="7" fill="#ECE4DB"/>
  <rect x="680" y="340" width="512" height="164" rx="24" fill="#FFF1E7"/>
  <rect x="680" y="532" width="512" height="144" rx="24" fill="#F7F2EC"/>
</svg>
