<svg xmlns="http://www.w3.org/2000/svg" width="1280" height="800" viewBox="0 0 1280 800" fill="none">
  <rect width="1280" height="800" rx="32" fill="#F3F7FF"/>
  <rect x="40" y="40" width="1200" height="92" rx="28" fill="#FFFFFF"/>
  <rect x="74" y="74" width="240" height="26" rx="13" fill="#DBEAFE"/>
  <rect x="40" y="164" width="1200" height="594" rx="28" fill="#FFFFFF"/>
  <rect x="88" y="220" width="458" height="54" rx="18" fill="#FFF1E7"/>
  <rect x="88" y="298" width="520" height="18" rx="9" fill="#E7EAF0"/>
  <rect x="88" y="334" width="520" height="18" rx="9" fill="#E7EAF0"/>
  <rect x="88" y="388" width="220" height="54" rx="18" fill="#2563EB"/>
  <rect x="336" y="388" width="220" height="54" rx="18" fill="#E0E7FF"/>
  <rect x="674" y="214" width="518" height="360" rx="30" fill="#F8FAFC"/>
  <rect x="714" y="254" width="438" height="140" rx="24" fill="#DBEAFE"/>
  <rect x="714" y="422" width="206" height="112" rx="20" fill="#FFE4E6"/>
  <rect x="946" y="422" width="206" height="112" rx="20" fill="#E0F2FE"/>
  <rect x="88" y="498" width="474" height="182" rx="24" fill="#F9F4ED"/>
</svg>
